<svg width="12" height="13" viewBox="0 0 12 13" fill="none" xmlns="http://www.w3.org/2000/svg">
<path d="M11.25 9.125V1.625C11.25 1.01562 10.7344 0.5 10.125 0.5H2.625C1.57031 0.5 0.75 1.34375 0.75 2.375V11C0.75 11.8438 1.40625 12.5 2.25 12.5H10.875C11.0625 12.5 11.25 12.3359 11.25 12.125C11.25 11.9375 11.0625 11.75 10.875 11.75H10.5V10.2031C10.9219 10.0391 11.25 9.61719 11.25 9.125ZM1.5 2.375C1.5 1.76562 1.99219 1.25 2.625 1.25H3V9.5H2.25C1.96875 9.5 1.71094 9.59375 1.5 9.71094V2.375ZM9.75 11.75H2.25C1.82812 11.75 1.5 11.4219 1.5 11C1.5 10.6016 1.82812 10.25 2.25 10.25H9.75V11.75ZM10.125 9.5H3.75V1.25H10.125C10.3125 1.25 10.5 1.4375 10.5 1.625V9.125C10.5 9.33594 10.3125 9.5 10.125 9.5ZM9 3.5H5.25C5.03906 3.5 4.875 3.6875 4.875 3.875C4.875 4.08594 5.03906 4.25 5.25 4.25H9C9.1875 4.25 9.375 4.08594 9.375 3.875C9.375 3.6875 9.1875 3.5 9 3.5ZM9 5.75H5.25C5.03906 5.75 4.875 5.9375 4.875 6.125C4.875 6.33594 5.03906 6.5 5.25 6.5H9C9.1875 6.5 9.375 6.33594 9.375 6.125C9.375 5.9375 9.1875 5.75 9 5.75Z" fill="url(#paint0_linear_2823_619)"/>
<defs>
<linearGradient id="paint0_linear_2823_619" x1="-4" y1="-6" x2="15.6636" y2="14.4829" gradientUnits="userSpaceOnUse">
<stop stop-color="#5EBBFF"/>
<stop offset="1" stop-color="#A174FF"/>
</linearGradient>
</defs>
</svg>
