<svg width="14" height="13" viewBox="0 0 14 13" fill="none" xmlns="http://www.w3.org/2000/svg">
<path d="M2.875 4.13281L2.47656 2.67969C2.40625 2.49219 2.47656 2.28125 2.61719 2.14062C2.75781 2 2.96875 1.92969 3.15625 2L4.60938 2.39844L4.98438 0.945312C5.03125 0.734375 5.19531 0.59375 5.38281 0.523438C5.59375 0.476562 5.78125 0.546875 5.94531 0.6875L7 1.76562L8.03125 0.6875C8.19531 0.546875 8.38281 0.476562 8.59375 0.523438C8.78125 0.59375 8.94531 0.734375 8.99219 0.945312L9.36719 2.39844L10.8203 2C11.0078 1.92969 11.2188 2 11.3594 2.14062C11.5 2.28125 11.5703 2.49219 11.5 2.67969L11.1016 4.13281L12.5547 4.50781C12.7656 4.55469 12.9062 4.71875 12.9766 4.90625C13.0234 5.09375 12.9531 5.30469 12.8125 5.44531L11.7344 6.5L12.8125 7.55469C12.9531 7.69531 13.0234 7.90625 12.9766 8.11719C12.9062 8.30469 12.7656 8.46875 12.5547 8.51562L11.1016 8.89062L11.5 10.3438C11.5703 10.5312 11.5 10.7422 11.3594 10.8828C11.2188 11.0234 11.0078 11.0938 10.8203 11.0234L9.36719 10.625L8.99219 12.0781C8.94531 12.2891 8.78125 12.4297 8.59375 12.5C8.38281 12.5469 8.19531 12.4766 8.03125 12.3359L7 11.2578L5.94531 12.3359C5.78125 12.4766 5.59375 12.5469 5.38281 12.5C5.19531 12.4297 5.03125 12.2891 4.98438 12.0781L4.60938 10.625L3.15625 11.0234C2.96875 11.0938 2.75781 11.0234 2.61719 10.8828C2.47656 10.7422 2.40625 10.5312 2.47656 10.3438L2.875 8.89062L1.42188 8.51562C1.21094 8.46875 1.07031 8.30469 1 8.11719C0.953125 7.90625 1.02344 7.69531 1.16406 7.55469L2.24219 6.5L1.16406 5.44531C1.02344 5.30469 0.953125 5.09375 1 4.90625C1.07031 4.71875 1.21094 4.55469 1.42188 4.50781L2.875 4.13281ZM4.98438 3.05469C4.82031 3.14844 4.60938 3.17188 4.42188 3.125L3.27344 2.79688L3.60156 3.92188C3.64844 4.13281 3.625 4.34375 3.53125 4.50781C3.41406 4.69531 3.25 4.8125 3.0625 4.85938L1.91406 5.16406L2.75781 5.98438C2.89844 6.125 2.99219 6.3125 2.99219 6.5C2.99219 6.71094 2.89844 6.89844 2.75781 7.03906L1.91406 7.85938L3.0625 8.16406C3.25 8.21094 3.41406 8.32812 3.53125 8.51562C3.625 8.67969 3.64844 8.89062 3.60156 9.07812L3.27344 10.2266L4.42188 9.89844C4.60938 9.85156 4.82031 9.875 4.98438 9.96875C5.17188 10.0625 5.28906 10.25 5.33594 10.4375L5.64062 11.5859L6.46094 10.7422C6.60156 10.5781 6.78906 10.5078 7 10.5078C7.1875 10.5078 7.375 10.5781 7.51562 10.7422L8.33594 11.5859L8.64062 10.4375C8.6875 10.25 8.80469 10.0625 8.99219 9.96875C9.15625 9.875 9.36719 9.85156 9.55469 9.89844L10.7031 10.2266L10.375 9.07812C10.3281 8.89062 10.3516 8.67969 10.4453 8.51562C10.5625 8.32812 10.7266 8.21094 10.9141 8.16406L12.0625 7.85938L11.2188 7.03906C11.0781 6.89844 10.9844 6.71094 10.9844 6.5C10.9844 6.3125 11.0781 6.125 11.2188 5.98438L12.0625 5.16406L10.9141 4.85938C10.7266 4.8125 10.5625 4.69531 10.4453 4.50781C10.3516 4.34375 10.3281 4.13281 10.375 3.92188L10.7031 2.79688L9.55469 3.125C9.36719 3.17188 9.15625 3.14844 8.99219 3.05469C8.80469 2.9375 8.6875 2.77344 8.64062 2.58594L8.33594 1.4375L7.51562 2.28125C7.375 2.42188 7.1875 2.51562 7 2.51562C6.78906 2.51562 6.60156 2.42188 6.46094 2.28125L5.64062 1.4375L5.33594 2.58594C5.28906 2.77344 5.17188 2.9375 4.98438 3.05469Z" fill="url(#paint0_linear_2823_634)"/>
<defs>
<linearGradient id="paint0_linear_2823_634" x1="-3" y1="-6" x2="16.6636" y2="14.4829" gradientUnits="userSpaceOnUse">
<stop stop-color="#5EBBFF"/>
<stop offset="1" stop-color="#A174FF"/>
</linearGradient>
</defs>
</svg>
