<svg width="12" height="13" viewBox="0 0 12 13" fill="none" xmlns="http://www.w3.org/2000/svg">
<path d="M5.50781 8.28125C5.36719 8.42188 5.10938 8.42188 4.96875 8.28125L3.46875 6.78125C3.32812 6.64062 3.32812 6.38281 3.46875 6.24219C3.60938 6.10156 3.86719 6.10156 4.00781 6.24219L5.25 7.48438L7.96875 4.74219C8.10938 4.60156 8.36719 4.60156 8.50781 4.74219C8.64844 4.88281 8.64844 5.14062 8.50781 5.28125L5.50781 8.28125ZM12 6.5C12 9.82812 9.30469 12.5 6 12.5C2.67188 12.5 0 9.82812 0 6.5C0 3.19531 2.67188 0.5 6 0.5C9.30469 0.5 12 3.19531 12 6.5ZM6 1.25C3.09375 1.25 0.75 3.61719 0.75 6.5C0.75 9.40625 3.09375 11.75 6 11.75C8.88281 11.75 11.25 9.40625 11.25 6.5C11.25 3.61719 8.88281 1.25 6 1.25Z" fill="url(#paint0_linear_2823_613)"/>
<defs>
<linearGradient id="paint0_linear_2823_613" x1="-4" y1="-6" x2="15.6636" y2="14.4829" gradientUnits="userSpaceOnUse">
<stop stop-color="#5EBBFF"/>
<stop offset="1" stop-color="#A174FF"/>
</linearGradient>
</defs>
</svg>
