<svg width="13" height="11" viewBox="0 0 13 11" fill="none" xmlns="http://www.w3.org/2000/svg">
<path d="M7 0.25C3.67188 0.25 1 2.42969 1 5.125C1 6.22656 1.46875 7.25781 2.24219 8.07812C1.89062 8.99219 1.16406 9.78906 1.16406 9.78906C1 9.95312 0.976562 10.1875 1.04688 10.3984C1.11719 10.6328 1.32812 10.75 1.5625 10.75C2.99219 10.75 4.11719 10.1641 4.82031 9.67188C5.47656 9.88281 6.22656 10 7 10C10.3047 10 12.9766 7.82031 12.9766 5.14844C12.9766 2.47656 10.3047 0.25 7 0.25ZM7 9.25C6.32031 9.25 5.66406 9.15625 5.03125 8.96875C4.82031 8.89844 4.5625 8.92188 4.375 9.0625C3.85938 9.4375 3.01562 9.88281 1.96094 10C2.24219 9.64844 2.66406 9.03906 2.92188 8.35938C3.03906 8.10156 2.96875 7.82031 2.78125 7.58594C2.10156 6.85938 1.75 6.01562 1.75 5.125C1.75 2.85156 4.09375 1 6.97656 1C9.83594 1 12.2031 2.85156 12.2031 5.125C12.2031 7.39844 9.88281 9.25 7 9.25ZM8.59375 3.625L6.36719 5.85156L5.38281 4.86719C5.24219 4.72656 4.98438 4.72656 4.84375 4.86719C4.70312 5.00781 4.70312 5.26562 4.84375 5.40625L6.10938 6.64844C6.17969 6.71875 6.27344 6.76562 6.36719 6.76562C6.46094 6.76562 6.55469 6.71875 6.625 6.64844L9.13281 4.14062C9.27344 4 9.27344 3.76562 9.13281 3.625C8.99219 3.48438 8.73438 3.48438 8.59375 3.625Z" fill="url(#paint0_linear_2823_631)"/>
<defs>
<linearGradient id="paint0_linear_2823_631" x1="-3" y1="-7" x2="16.6636" y2="13.4829" gradientUnits="userSpaceOnUse">
<stop stop-color="#5EBBFF"/>
<stop offset="1" stop-color="#A174FF"/>
</linearGradient>
</defs>
</svg>
