<svg width="16" height="13" viewBox="0 0 16 13" fill="none" xmlns="http://www.w3.org/2000/svg">
<path d="M5.375 5.75C5.09375 5.75 4.90625 5.96094 4.90625 6.21875C4.90625 6.5 5.09375 6.6875 5.375 6.6875C5.63281 6.6875 5.84375 6.5 5.84375 6.21875C5.84375 5.96094 5.63281 5.75 5.375 5.75ZM5.75 2.375H4.90625C4.32031 2.375 3.875 2.84375 3.875 3.42969C3.875 3.64062 4.03906 3.80469 4.25 3.80469C4.4375 3.80469 4.625 3.64062 4.625 3.42969C4.625 3.26562 4.74219 3.125 4.90625 3.125H5.75C5.96094 3.125 6.125 3.28906 6.125 3.5C6.125 3.64062 6.03125 3.75781 5.91406 3.82812L5.1875 4.20312C5.07031 4.25 5 4.39062 5 4.53125V5C5 5.21094 5.16406 5.375 5.375 5.375C5.5625 5.375 5.75 5.21094 5.75 5V4.76562L6.24219 4.48438C6.61719 4.29688 6.875 3.92188 6.875 3.5C6.875 2.89062 6.35938 2.375 5.75 2.375ZM10.25 4.625C10.25 2.35156 8.04688 0.5 5.375 0.5C2.67969 0.5 0.5 2.35156 0.5 4.625C0.5 5.60938 0.898438 6.5 1.55469 7.20312C1.20312 7.95312 0.640625 8.5625 0.640625 8.5625C0.476562 8.72656 0.453125 8.96094 0.523438 9.17188C0.617188 9.38281 0.828125 9.5 1.03906 9.5C2.30469 9.5 3.33594 9.03125 3.99219 8.58594C4.4375 8.70312 4.88281 8.75 5.375 8.75C8.04688 8.75 10.25 6.92188 10.25 4.625ZM5.375 8C4.97656 8 4.55469 7.95312 4.17969 7.85938L3.85156 7.78906L3.59375 7.97656C3.10156 8.28125 2.375 8.65625 1.48438 8.75C1.69531 8.44531 2 8.02344 2.23438 7.53125L2.44531 7.0625L2.09375 6.6875C1.53125 6.10156 1.25 5.375 1.25 4.625C1.25 2.77344 3.07812 1.25 5.375 1.25C7.64844 1.25 9.5 2.77344 9.5 4.625C9.5 6.5 7.64844 8 5.375 8ZM14.7031 10.7188C15.1953 10.0625 15.5 9.24219 15.5 8.375C15.5 6.10156 13.4844 4.25 11 4.25C10.9766 4.25 10.9766 4.27344 10.9766 4.27344C10.9766 4.39062 11 4.50781 11 4.625C11 4.76562 10.9766 4.88281 10.9766 5.02344C10.9766 5.02344 10.9766 5 11 5C13.0625 5 14.75 6.52344 14.75 8.375C14.75 9.05469 14.5156 9.71094 14.0938 10.2734L13.7891 10.6719L14.0703 11.1172C14.2109 11.3516 14.375 11.5859 14.4922 11.75C14.0703 11.7031 13.6484 11.5859 13.2266 11.3984L12.9219 11.2812L12.6406 11.4219C12.1016 11.6328 11.5625 11.75 11 11.75C9.21875 11.75 7.76562 10.6719 7.36719 9.19531C7.13281 9.26562 6.875 9.33594 6.61719 9.38281C7.10938 11.1875 8.86719 12.5 11 12.5C11.6797 12.5 12.3359 12.3594 12.9453 12.1016C13.5078 12.3359 14.1641 12.5 14.9375 12.5C15.1484 12.5 15.3594 12.3828 15.4531 12.1719C15.5234 11.9609 15.4766 11.7266 15.3359 11.5859C15.3359 11.5625 15.0078 11.2109 14.7031 10.7188ZM9.59375 8.42188C9.45312 8.58594 9.45312 8.82031 9.59375 8.96094L10.4844 9.82812C10.5547 9.89844 10.6484 9.94531 10.7422 9.94531C10.8359 9.94531 10.9297 9.89844 11 9.82812L12.9453 7.90625C13.0859 7.76562 13.0859 7.50781 12.9453 7.36719C12.8047 7.22656 12.5469 7.22656 12.4062 7.36719L10.7422 9.05469L10.1328 8.44531C9.99219 8.28125 9.73438 8.28125 9.59375 8.42188Z" fill="url(#paint0_linear_2823_628)"/>
<defs>
<linearGradient id="paint0_linear_2823_628" x1="-2" y1="-6" x2="17.6636" y2="14.4829" gradientUnits="userSpaceOnUse">
<stop stop-color="#5EBBFF"/>
<stop offset="1" stop-color="#A174FF"/>
</linearGradient>
</defs>
</svg>
