<svg width="16" height="13" viewBox="0 0 16 13" fill="none" xmlns="http://www.w3.org/2000/svg">
<path d="M7.53125 7.83594C7.71875 7.74219 7.92969 7.78906 8.04688 7.97656C8.14062 8.16406 8.09375 8.375 7.90625 8.49219L6.78125 9.14844C6.59375 9.24219 6.35938 9.17188 6.26562 9.00781C6.14844 8.82031 6.21875 8.58594 6.40625 8.49219L7.53125 7.83594ZM4.57812 4.48438C4.625 4.32031 4.78906 4.20312 4.95312 4.25L7.50781 4.97656C8.25781 5.1875 8.67969 6.00781 8.42188 6.75781C8.23438 7.29688 7.69531 7.60156 7.15625 7.57812C7.03906 7.57812 6.92188 7.57812 6.82812 7.53125L6.54688 7.46094L6.5 7.71875C6.47656 7.8125 6.42969 7.90625 6.40625 8C6.14844 8.51562 5.58594 8.84375 5 8.72656C4.22656 8.58594 3.75781 7.78906 3.94531 7.0625L4.57812 4.48438ZM4.67188 7.22656C4.57812 7.57812 4.8125 7.92969 5.14062 8C5.39844 8.02344 5.67969 7.85938 5.77344 7.55469L5.98438 6.52344L7.01562 6.82812C7.34375 6.89844 7.64844 6.73438 7.71875 6.5C7.83594 6.17188 7.64844 5.79688 7.32031 5.70312L5.1875 5.11719L4.67188 7.22656ZM4.57812 11.8672C4.57812 11.8672 4.57812 11.8672 4.57812 11.8438L0.664062 5.09375C0.664062 5.07031 0.664062 5.07031 0.664062 5.07031C0.3125 4.4375 0.523438 3.66406 1.13281 3.28906L5.65625 0.6875C6.28906 0.335938 7.08594 0.546875 7.4375 1.15625L11.3516 7.95312C11.7266 8.5625 11.5156 9.35938 10.8828 9.71094C10.8828 9.73438 10.8828 9.73438 10.8828 9.73438L6.35938 12.3359C5.72656 12.6875 4.95312 12.4766 4.57812 11.8672ZM5.98438 11.6797L10.5078 9.07812C10.7656 8.91406 10.8594 8.58594 10.6953 8.30469L6.80469 1.55469C6.64062 1.27344 6.28906 1.17969 6.03125 1.34375L1.53125 3.94531C1.25 4.08594 1.15625 4.4375 1.32031 4.69531L5.23438 11.4922C5.375 11.75 5.72656 11.8438 5.98438 11.6797ZM8.9375 12.5C8.60938 12.5 8.30469 12.4062 8.09375 12.1953L8.86719 11.75C8.89062 11.75 8.91406 11.75 8.9375 11.75H14.1875C14.4922 11.75 14.75 11.5156 14.75 11.1875V3.3125C14.75 3.00781 14.4922 2.75 14.1875 2.75H9.24219L8.79688 2.02344C8.84375 2.02344 8.89062 2 8.9375 2H14.1875C14.8906 2 15.5 2.60938 15.5 3.3125V11.1875C15.5 11.9141 14.8906 12.5 14.1875 12.5H8.9375ZM11 3.75781C11.375 3.42969 11.9141 3.45312 12.2891 3.71094C12.6875 3.45312 13.2031 3.42969 13.6016 3.75781C14.0938 4.17969 14.1172 4.92969 13.6719 5.375L12.6875 6.40625C12.4766 6.59375 12.125 6.61719 11.9141 6.38281L10.9297 5.375C10.4844 4.92969 10.5078 4.17969 11 3.75781ZM11.4922 4.32031C11.3281 4.46094 11.3281 4.69531 11.4688 4.85938L12.3125 5.72656L13.1328 4.85938C13.2734 4.69531 13.2734 4.46094 13.1094 4.32031C12.9922 4.22656 12.8047 4.22656 12.6641 4.36719L12.3125 4.76562L11.9375 4.36719C11.7969 4.22656 11.5859 4.22656 11.4922 4.32031Z" fill="url(#paint0_linear_2823_625)"/>
<defs>
<linearGradient id="paint0_linear_2823_625" x1="-2" y1="-6" x2="17.6636" y2="14.4829" gradientUnits="userSpaceOnUse">
<stop stop-color="#5EBBFF"/>
<stop offset="1" stop-color="#A174FF"/>
</linearGradient>
</defs>
</svg>
