<svg width="15" height="13" viewBox="0 0 15 13" fill="none" xmlns="http://www.w3.org/2000/svg">
<path d="M5.3125 1.8125C5.3125 2.53906 4.70312 3.125 4 3.125C3.27344 3.125 2.6875 2.53906 2.6875 1.8125C2.6875 1.10938 3.27344 0.5 4 0.5C4.70312 0.5 5.3125 1.10938 5.3125 1.8125ZM4 1.25C3.67188 1.25 3.4375 1.50781 3.4375 1.8125C3.4375 2.14062 3.67188 2.375 4 2.375C4.30469 2.375 4.5625 2.14062 4.5625 1.8125C4.5625 1.50781 4.30469 1.25 4 1.25ZM2.875 12.5C2.66406 12.5 2.5 12.3359 2.5 12.125V5.25781L1.32812 7.4375C1.21094 7.625 1 7.69531 0.8125 7.60156C0.625 7.48438 0.554688 7.27344 0.648438 7.08594L2.03125 4.50781C2.35938 3.89844 2.99219 3.5 3.69531 3.5H7V1.625C7 1.01562 7.49219 0.5 8.125 0.5H13.375C13.9844 0.5 14.5 1.01562 14.5 1.625V6.875C14.5 7.50781 13.9844 8 13.375 8H8.125C7.49219 8 7 7.50781 7 6.875V5H7.75V6.875C7.75 7.08594 7.91406 7.25 8.125 7.25H13.375C13.5625 7.25 13.75 7.08594 13.75 6.875V1.625C13.75 1.4375 13.5625 1.25 13.375 1.25H8.125C7.91406 1.25 7.75 1.4375 7.75 1.625V3.5H8.875C9.0625 3.5 9.25 3.6875 9.25 3.875C9.25 4.08594 9.0625 4.25 8.875 4.25H5.5V12.125C5.5 12.3359 5.3125 12.5 5.125 12.5C4.91406 12.5 4.75 12.3359 4.75 12.125V8.75H3.25V12.125C3.25 12.3359 3.0625 12.5 2.875 12.5ZM3.69531 4.25C3.53125 4.25 3.36719 4.29688 3.25 4.34375V8H4.75V4.25H3.69531Z" fill="url(#paint0_linear_2823_616)"/>
<defs>
<linearGradient id="paint0_linear_2823_616" x1="-3" y1="-6" x2="16.6636" y2="14.4829" gradientUnits="userSpaceOnUse">
<stop stop-color="#5EBBFF"/>
<stop offset="1" stop-color="#A174FF"/>
</linearGradient>
</defs>
</svg>
