<svg width="30" height="35" viewBox="0 0 30 35" fill="none" xmlns="http://www.w3.org/2000/svg">
<path d="M30 13.125C27.1875 13.1875 24.5625 12.3125 22.3125 10.6875V21.875C22.3125 29.6875 13.8125 34.5625 7.0625 30.6875C0.3125 26.75 0.3125 17 7.0625 13.0625C9 11.9375 11.3125 11.5 13.5625 11.8125V17.4375C10.125 16.3125 6.8125 19.375 7.5625 22.875C8.375 26.375 12.625 27.75 15.3125 25.3125C16.25 24.4375 16.8125 23.1875 16.8125 21.875V0H22.3125C22.3125 0.5 22.3125 0.9375 22.4375 1.4375C22.8125 3.5 24 5.3125 25.8125 6.4375C27 7.25 28.5 7.6875 30 7.6875V13.125Z" fill="#A2ADBD"/>
</svg>
