<svg width="36" height="24" viewBox="0 0 36 24" fill="none" xmlns="http://www.w3.org/2000/svg">
<path d="M34.3125 3.8125C33.9375 2.3125 32.75 1.125 31.3125 0.75C28.625 0 18 0 18 0C18 0 7.3125 0 4.625 0.75C3.1875 1.125 2 2.3125 1.625 3.8125C0.875 6.4375 0.875 12.0625 0.875 12.0625C0.875 12.0625 0.875 17.625 1.625 20.3125C2 21.8125 3.1875 22.9375 4.625 23.3125C7.3125 24 18 24 18 24C18 24 28.625 24 31.3125 23.3125C32.75 22.9375 33.9375 21.8125 34.3125 20.3125C35.0625 17.625 35.0625 12.0625 35.0625 12.0625C35.0625 12.0625 35.0625 6.4375 34.3125 3.8125ZM14.5 17.125V7L23.375 12.0625L14.5 17.125Z" fill="#A2ADBD"/>
</svg>
