<svg width="18" height="14" viewBox="0 0 18 14" fill="none" xmlns="http://www.w3.org/2000/svg">
<path d="M15.75 0.5H2.25C0.984375 0.5 0 1.51953 0 2.75V11.75C0 13.0156 0.984375 14 2.25 14H15.75C16.9805 14 18 13.0156 18 11.75V2.75C18 1.51953 16.9805 0.5 15.75 0.5ZM2.25 1.625H15.75C16.3477 1.625 16.875 2.15234 16.875 2.75V4.05078L9.98438 9.18359C9.38672 9.64062 8.57812 9.64062 7.98047 9.18359L1.125 4.01562V2.75C1.125 2.15234 1.61719 1.625 2.25 1.625ZM16.875 11.75C16.875 12.3828 16.3477 12.875 15.75 12.875H2.25C1.61719 12.875 1.125 12.3828 1.125 11.75V5.42188L7.3125 10.0625C7.80469 10.4492 8.40234 10.6602 9 10.6602C9.5625 10.6602 10.1602 10.4492 10.6875 10.0625L16.875 5.42188V11.75Z" fill="white"/>
</svg>
