<svg width="16" height="9" viewBox="0 0 16 9" fill="none" xmlns="http://www.w3.org/2000/svg">
<path d="M11.9375 0.75C10.0156 0.75 8.60938 2.69531 8 3.72656C7.36719 2.69531 5.96094 0.75 4.03906 0.75C2.07031 0.75 0.5 2.4375 0.5 4.5C0.5 6.58594 2.07031 8.25 4.03906 8.25C5.96094 8.25 7.36719 6.32812 8 5.29688C8.60938 6.32812 10.0156 8.25 11.9375 8.25C13.9062 8.25 15.5 6.58594 15.5 4.5C15.5 2.4375 13.9062 0.75 11.9375 0.75ZM4.03906 7.5C2.49219 7.5 1.25 6.16406 1.25 4.5C1.25 2.85938 2.49219 1.5 4.03906 1.5C5.86719 1.5 7.22656 3.86719 7.57812 4.5C7.22656 5.15625 5.86719 7.5 4.03906 7.5ZM11.9375 7.5C10.1094 7.5 8.75 5.15625 8.42188 4.5C8.75 3.86719 10.1094 1.5 11.9375 1.5C13.4844 1.5 14.75 2.85938 14.75 4.5C14.75 6.16406 13.4844 7.5 11.9375 7.5Z" fill="url(#paint0_linear_2823_640)"/>
<defs>
<linearGradient id="paint0_linear_2823_640" x1="-2" y1="-8" x2="17.6636" y2="12.4829" gradientUnits="userSpaceOnUse">
<stop stop-color="#5EBBFF"/>
<stop offset="1" stop-color="#A174FF"/>
</linearGradient>
</defs>
</svg>
