<svg width="21" height="19" viewBox="0 0 21 19" fill="none" xmlns="http://www.w3.org/2000/svg">
<path d="M14.3438 4.46875C14.3438 6.40234 11.7422 9.8125 10.6172 11.2188C10.3711 11.5703 9.84375 11.5703 9.59766 11.2188C8.47266 9.8125 5.90625 6.40234 5.90625 4.46875C5.90625 2.14844 7.76953 0.25 10.125 0.25C12.4453 0.25 14.3438 2.14844 14.3438 4.46875ZM10.125 1.375C8.40234 1.375 7.03125 2.78125 7.03125 4.46875C7.03125 4.75 7.10156 5.13672 7.34766 5.69922C7.55859 6.26172 7.91016 6.85938 8.26172 7.45703C8.85938 8.44141 9.5625 9.39062 10.125 10.0938C10.6523 9.39062 11.3555 8.44141 11.9531 7.45703C12.3047 6.85938 12.6562 6.26172 12.8672 5.69922C13.1133 5.13672 13.2188 4.75 13.2188 4.46875C13.2188 2.78125 11.8125 1.375 10.125 1.375ZM14.9414 6.61328L19.0898 4.96094C19.6172 4.75 20.25 5.13672 20.25 5.73438V15.2617C20.25 15.6133 20.0391 15.9297 19.6875 16.0352L14.2383 18.2148C14.1328 18.2852 14.0273 18.2852 13.8867 18.25L6.1875 16.0352L1.125 18.0742C0.597656 18.2852 0 17.8984 0 17.3008V7.77344C0 7.42188 0.175781 7.10547 0.527344 7L4.85156 5.24219C4.92188 5.62891 5.02734 5.98047 5.16797 6.33203L1.125 7.94922V16.8789L5.625 15.0859V10.9375C5.625 10.6562 5.87109 10.375 6.1875 10.375C6.46875 10.375 6.75 10.6562 6.75 10.9375V15.0156L13.5 16.9492V10.9375C13.5 10.6562 13.7461 10.375 14.0625 10.375C14.3438 10.375 14.625 10.6562 14.625 10.9375V16.8789L19.125 15.0859V6.15625L14.2383 8.08984C14.2383 8.125 14.2031 8.125 14.168 8.125C14.4492 7.63281 14.7305 7.10547 14.9414 6.61328Z" fill="white"/>
</svg>
