<svg width="12" height="11" viewBox="0 0 12 11" fill="none" xmlns="http://www.w3.org/2000/svg">
<path d="M0 1.75C0 0.929688 0.65625 0.25 1.5 0.25H10.5C11.3203 0.25 12 0.929688 12 1.75V9.25C12 10.0938 11.3203 10.75 10.5 10.75H1.5C0.65625 10.75 0 10.0938 0 9.25V1.75ZM3.75 2.5H11.25V1.75C11.25 1.35156 10.8984 1 10.5 1H3.75V2.5ZM3 1H1.5C1.07812 1 0.75 1.35156 0.75 1.75V2.5H3V1ZM0.75 3.25V9.25C0.75 9.67188 1.07812 10 1.5 10H10.5C10.8984 10 11.25 9.67188 11.25 9.25V3.25H0.75Z" fill="url(#paint0_linear_2823_622)"/>
<defs>
<linearGradient id="paint0_linear_2823_622" x1="-4" y1="-7" x2="15.6636" y2="13.4829" gradientUnits="userSpaceOnUse">
<stop stop-color="#5EBBFF"/>
<stop offset="1" stop-color="#A174FF"/>
</linearGradient>
</defs>
</svg>
