<svg width="19" height="19" viewBox="0 0 19 19" fill="none" xmlns="http://www.w3.org/2000/svg">
<path d="M17.0156 11.8867L13.4297 10.3398C12.7969 10.0938 12.0234 10.2695 11.6016 10.832L10.4062 12.2383C8.57812 11.2188 7.03125 9.67188 6.01172 7.84375L7.45312 6.68359C7.98047 6.22656 8.15625 5.45312 7.875 4.82031L6.36328 1.23438C6.04688 0.53125 5.27344 0.144531 4.53516 0.320312L1.23047 1.09375C0.492188 1.23438 0 1.86719 0 2.64062C0 11.2539 6.99609 18.25 15.6094 18.25C16.3828 18.25 17.0156 17.7578 17.1914 17.0195L17.9297 13.7148C18.1055 12.9766 17.7188 12.2031 17.0156 11.8867ZM16.0664 16.7734C16.0312 16.9844 15.8555 17.1602 15.6094 17.1602C7.62891 17.1602 1.125 10.6211 1.125 2.64062C1.125 2.39453 1.26562 2.21875 1.47656 2.18359L4.78125 1.41016C4.81641 1.41016 4.85156 1.375 4.88672 1.375C5.0625 1.375 5.23828 1.51562 5.34375 1.69141L6.85547 5.24219C6.92578 5.45312 6.89062 5.66406 6.71484 5.80469L4.95703 7.24609C4.74609 7.42188 4.67578 7.70312 4.81641 7.94922C5.97656 10.3047 7.94531 12.2734 10.3359 13.4336C10.5469 13.5742 10.8281 13.5039 11.0039 13.293L12.4453 11.5352C12.5859 11.3594 12.7969 11.3242 13.0078 11.3945L16.5586 12.9062C16.7695 13.0117 16.9102 13.2227 16.8398 13.4688L16.0664 16.7734Z" fill="white"/>
</svg>
