<svg width="12" height="11" viewBox="0 0 12 11" fill="none" xmlns="http://www.w3.org/2000/svg">
<path d="M10.125 0.25C10.3125 0.25 10.5 0.4375 10.5 0.625V1.75H11.625C11.8125 1.75 12 1.9375 12 2.125C12 2.33594 11.8125 2.5 11.625 2.5H10.5V3.625C10.5 3.83594 10.3125 4 10.125 4C9.91406 4 9.75 3.83594 9.75 3.625V2.5H8.625C8.41406 2.5 8.25 2.33594 8.25 2.125C8.25 1.9375 8.41406 1.75 8.625 1.75H9.75V0.625C9.75 0.4375 9.91406 0.25 10.125 0.25ZM10.125 7C10.3125 7 10.5 7.1875 10.5 7.375V8.5H11.625C11.8125 8.5 12 8.6875 12 8.875C12 9.08594 11.8125 9.25 11.625 9.25H10.5V10.375C10.5 10.5859 10.3125 10.75 10.125 10.75C9.91406 10.75 9.75 10.5859 9.75 10.375V9.25H8.625C8.41406 9.25 8.25 9.08594 8.25 8.875C8.25 8.6875 8.41406 8.5 8.625 8.5H9.75V7.375C9.75 7.1875 9.91406 7 10.125 7ZM2.88281 7.04688L0.210938 5.82812C0.0703125 5.75781 0 5.61719 0 5.47656C0 5.33594 0.0703125 5.19531 0.210938 5.125L2.88281 3.90625L4.125 1.23438C4.17188 1.09375 4.3125 1 4.45312 1C4.59375 1 4.73438 1.09375 4.80469 1.23438L6.02344 3.90625L8.69531 5.125C8.83594 5.19531 8.92969 5.33594 8.92969 5.47656C8.92969 5.61719 8.83594 5.75781 8.69531 5.82812L6.02344 7.04688L4.80469 9.71875C4.73438 9.85938 4.59375 9.95312 4.45312 9.95312C4.3125 9.95312 4.17188 9.85938 4.125 9.71875L2.88281 7.04688ZM1.26562 5.47656L3.1875 6.36719C3.35156 6.4375 3.49219 6.57812 3.5625 6.74219L4.45312 8.66406L5.34375 6.74219C5.41406 6.57812 5.55469 6.4375 5.71875 6.36719L7.64062 5.47656L5.71875 4.58594C5.55469 4.51562 5.41406 4.375 5.34375 4.21094L4.45312 2.28906L3.5625 4.21094C3.49219 4.375 3.35156 4.51562 3.1875 4.58594L1.26562 5.47656Z" fill="url(#paint0_linear_2823_637)"/>
<defs>
<linearGradient id="paint0_linear_2823_637" x1="-4" y1="-7" x2="15.6636" y2="13.4829" gradientUnits="userSpaceOnUse">
<stop stop-color="#5EBBFF"/>
<stop offset="1" stop-color="#A174FF"/>
</linearGradient>
</defs>
</svg>
